<svg width="174" height="139" viewBox="0 0 174 139" fill="none" xmlns="http://www.w3.org/2000/svg">
<g clip-path="url(#clip0_166_581)">
<g opacity="0.06" filter="url(#filter0_n_166_581)">
<rect y="22" width="146" height="117" fill="url(#paint0_radial_166_581)"/>
</g>
<mask id="mask0_166_581" style="mask-type:alpha" maskUnits="userSpaceOnUse" x="30" y="38" width="99" height="73">
<rect x="30" y="38" width="99" height="73" fill="url(#paint1_linear_166_581)"/>
</mask>
<g mask="url(#mask0_166_581)">
<g filter="url(#filter1_ddiii_166_581)">
<path d="M45 58C45 51.3726 50.3726 46 57 46H79C85.6274 46 91 51.3726 91 58V80C91 86.6274 85.6274 92 79 92H57C50.3726 92 45 86.6274 45 80V58Z" fill="#191919" fill-opacity="0.7" shape-rendering="crispEdges"/>
<path d="M45 58C45 51.3726 50.3726 46 57 46H79C85.6274 46 91 51.3726 91 58V80C91 86.6274 85.6274 92 79 92H57C50.3726 92 45 86.6274 45 80V58Z" fill="url(#paint2_radial_166_581)" fill-opacity="0.2" shape-rendering="crispEdges"/>
<path d="M45 58C45 51.3726 50.3726 46 57 46H79C85.6274 46 91 51.3726 91 58V80C91 86.6274 85.6274 92 79 92H57C50.3726 92 45 86.6274 45 80V58Z" fill="url(#paint3_radial_166_581)" fill-opacity="0.2" shape-rendering="crispEdges"/>
<path d="M45 58C45 51.3726 50.3726 46 57 46H79C85.6274 46 91 51.3726 91 58V80C91 86.6274 85.6274 92 79 92H57C50.3726 92 45 86.6274 45 80V58Z" fill="url(#paint4_radial_166_581)" fill-opacity="0.7" shape-rendering="crispEdges"/>
<path d="M45 58C45 51.3726 50.3726 46 57 46H79C85.6274 46 91 51.3726 91 58V80C91 86.6274 85.6274 92 79 92H57C50.3726 92 45 86.6274 45 80V58Z" fill="url(#paint5_radial_166_581)" fill-opacity="0.7" shape-rendering="crispEdges"/>
<path d="M45 58C45 51.3726 50.3726 46 57 46H79C85.6274 46 91 51.3726 91 58V80C91 86.6274 85.6274 92 79 92H57C50.3726 92 45 86.6274 45 80V58Z" fill="url(#paint6_radial_166_581)" fill-opacity="0.9" shape-rendering="crispEdges"/>
<path d="M45 58C45 51.3726 50.3726 46 57 46H79C85.6274 46 91 51.3726 91 58V80C91 86.6274 85.6274 92 79 92H57C50.3726 92 45 86.6274 45 80V58Z" fill="url(#paint7_radial_166_581)" fill-opacity="0.9" shape-rendering="crispEdges"/>
<path d="M45 58C45 51.3726 50.3726 46 57 46H79C85.6274 46 91 51.3726 91 58V80C91 86.6274 85.6274 92 79 92H57C50.3726 92 45 86.6274 45 80V58Z" fill="url(#paint8_radial_166_581)" fill-opacity="0.5" shape-rendering="crispEdges"/>
<path d="M45 58C45 51.3726 50.3726 46 57 46H79C85.6274 46 91 51.3726 91 58V80C91 86.6274 85.6274 92 79 92H57C50.3726 92 45 86.6274 45 80V58Z" fill="url(#paint9_radial_166_581)" fill-opacity="0.4" shape-rendering="crispEdges"/>
<path d="M45 58C45 51.3726 50.3726 46 57 46H79C85.6274 46 91 51.3726 91 58V80C91 86.6274 85.6274 92 79 92H57C50.3726 92 45 86.6274 45 80V58Z" fill="black" fill-opacity="0.2" shape-rendering="crispEdges"/>
<path d="M57 46.5H79C85.3513 46.5 90.5 51.6487 90.5 58V80C90.5 86.3513 85.3513 91.5 79 91.5H57C50.6487 91.5 45.5 86.3513 45.5 80V58C45.5 51.6487 50.6487 46.5 57 46.5Z" stroke="url(#paint10_linear_166_581)" stroke-opacity="0.9" shape-rendering="crispEdges"/>
</g>
</g>
<g filter="url(#filter2_f_166_581)">
<mask id="mask1_166_581" style="mask-type:alpha" maskUnits="userSpaceOnUse" x="0" y="-39" width="174" height="174">
<rect x="0.867676" y="80.4214" width="130.3" height="130.806" transform="rotate(-65.6813 0.867676 80.4214)" fill="url(#paint11_linear_166_581)"/>
</mask>
<g mask="url(#mask1_166_581)">
<g filter="url(#filter3_f_166_581)">
<g filter="url(#filter4_f_166_581)">
<g filter="url(#filter5_ddiii_166_581)">
<path d="M61.6161 94.3769C55.5768 91.6476 52.8934 84.5393 55.6227 78.4999L79.9196 24.735C82.6488 18.6957 89.7572 16.0123 95.7965 18.7415L176.414 55.1733C182.453 57.9026 185.137 65.011 182.407 71.0503L158.11 124.815C155.381 130.855 148.273 133.538 142.233 130.809L61.6161 94.3769Z" fill="#191919" fill-opacity="0.7" shape-rendering="crispEdges"/>
<path d="M61.6161 94.3769C55.5768 91.6476 52.8934 84.5393 55.6227 78.4999L79.9196 24.735C82.6488 18.6957 89.7572 16.0123 95.7965 18.7415L176.414 55.1733C182.453 57.9026 185.137 65.011 182.407 71.0503L158.11 124.815C155.381 130.855 148.273 133.538 142.233 130.809L61.6161 94.3769Z" fill="url(#paint12_radial_166_581)" fill-opacity="0.2" shape-rendering="crispEdges"/>
<path d="M61.6161 94.3769C55.5768 91.6476 52.8934 84.5393 55.6227 78.4999L79.9196 24.735C82.6488 18.6957 89.7572 16.0123 95.7965 18.7415L176.414 55.1733C182.453 57.9026 185.137 65.011 182.407 71.0503L158.11 124.815C155.381 130.855 148.273 133.538 142.233 130.809L61.6161 94.3769Z" fill="url(#paint13_radial_166_581)" fill-opacity="0.2" shape-rendering="crispEdges"/>
<path d="M61.6161 94.3769C55.5768 91.6476 52.8934 84.5393 55.6227 78.4999L79.9196 24.735C82.6488 18.6957 89.7572 16.0123 95.7965 18.7415L176.414 55.1733C182.453 57.9026 185.137 65.011 182.407 71.0503L158.11 124.815C155.381 130.855 148.273 133.538 142.233 130.809L61.6161 94.3769Z" fill="url(#paint14_radial_166_581)" fill-opacity="0.7" shape-rendering="crispEdges"/>
<path d="M61.6161 94.3769C55.5768 91.6476 52.8934 84.5393 55.6227 78.4999L79.9196 24.735C82.6488 18.6957 89.7572 16.0123 95.7965 18.7415L176.414 55.1733C182.453 57.9026 185.137 65.011 182.407 71.0503L158.11 124.815C155.381 130.855 148.273 133.538 142.233 130.809L61.6161 94.3769Z" fill="url(#paint15_radial_166_581)" fill-opacity="0.7" shape-rendering="crispEdges"/>
<path d="M61.6161 94.3769C55.5768 91.6476 52.8934 84.5393 55.6227 78.4999L79.9196 24.735C82.6488 18.6957 89.7572 16.0123 95.7965 18.7415L176.414 55.1733C182.453 57.9026 185.137 65.011 182.407 71.0503L158.11 124.815C155.381 130.855 148.273 133.538 142.233 130.809L61.6161 94.3769Z" fill="url(#paint16_radial_166_581)" fill-opacity="0.9" shape-rendering="crispEdges"/>
<path d="M61.6161 94.3769C55.5768 91.6476 52.8934 84.5393 55.6227 78.4999L79.9196 24.735C82.6488 18.6957 89.7572 16.0123 95.7965 18.7415L176.414 55.1733C182.453 57.9026 185.137 65.011 182.407 71.0503L158.11 124.815C155.381 130.855 148.273 133.538 142.233 130.809L61.6161 94.3769Z" fill="url(#paint17_radial_166_581)" fill-opacity="0.9" shape-rendering="crispEdges"/>
<path d="M61.6161 94.3769C55.5768 91.6476 52.8934 84.5393 55.6227 78.4999L79.9196 24.735C82.6488 18.6957 89.7572 16.0123 95.7965 18.7415L176.414 55.1733C182.453 57.9026 185.137 65.011 182.407 71.0503L158.11 124.815C155.381 130.855 148.273 133.538 142.233 130.809L61.6161 94.3769Z" fill="url(#paint18_radial_166_581)" fill-opacity="0.5" shape-rendering="crispEdges"/>
<path d="M61.6161 94.3769C55.5768 91.6476 52.8934 84.5393 55.6227 78.4999L79.9196 24.735C82.6488 18.6957 89.7572 16.0123 95.7965 18.7415L176.414 55.1733C182.453 57.9026 185.137 65.011 182.407 71.0503L158.11 124.815C155.381 130.855 148.273 133.538 142.233 130.809L61.6161 94.3769Z" fill="url(#paint19_radial_166_581)" fill-opacity="0.4" shape-rendering="crispEdges"/>
<path d="M61.6161 94.3769C55.5768 91.6476 52.8934 84.5393 55.6227 78.4999L79.9196 24.735C82.6488 18.6957 89.7572 16.0123 95.7965 18.7415L176.414 55.1733C182.453 57.9026 185.137 65.011 182.407 71.0503L158.11 124.815C155.381 130.855 148.273 133.538 142.233 130.809L61.6161 94.3769Z" fill="black" fill-opacity="0.2" shape-rendering="crispEdges"/>
<path d="M56.0783 78.7058L80.3752 24.9409C82.9907 19.1532 89.8029 16.5817 95.5906 19.1972L176.208 55.6289C181.995 58.2444 184.567 65.0566 181.951 70.8443L157.655 124.609C155.039 130.397 148.227 132.968 142.439 130.353L61.822 93.9212C56.0343 91.3057 53.4628 84.4935 56.0783 78.7058Z" stroke="url(#paint20_linear_166_581)" stroke-opacity="0.9" shape-rendering="crispEdges"/>
</g>
</g>
</g>
</g>
</g>
</g>
<defs>
<filter id="filter0_n_166_581" x="0" y="22" width="146" height="117" filterUnits="userSpaceOnUse" color-interpolation-filters="sRGB">
<feFlood flood-opacity="0" result="BackgroundImageFix"/>
<feBlend mode="normal" in="SourceGraphic" in2="BackgroundImageFix" result="shape"/>
<feTurbulence type="fractalNoise" baseFrequency="1 1" stitchTiles="stitch" numOctaves="3" result="noise" seed="8971" />
<feColorMatrix in="noise" type="luminanceToAlpha" result="alphaNoise" />
<feComponentTransfer in="alphaNoise" result="coloredNoise1">
<feFuncA type="discrete" tableValues="1 1 1 1 1 1 1 1 1 1 1 1 1 1 1 1 1 1 1 1 1 1 1 1 1 1 1 1 1 1 1 1 1 1 1 1 1 1 1 1 1 1 1 1 1 1 1 1 1 1 1 0 0 0 0 0 0 0 0 0 0 0 0 0 0 0 0 0 0 0 0 0 0 0 0 0 0 0 0 0 0 0 0 0 0 0 0 0 0 0 0 0 0 0 0 0 0 0 0 0 "/>
</feComponentTransfer>
<feComposite operator="in" in2="shape" in="coloredNoise1" result="noise1Clipped" />
<feFlood flood-color="rgba(37, 37, 37, 0.65)" result="color1Flood" />
<feComposite operator="in" in2="noise1Clipped" in="color1Flood" result="color1" />
<feMerge result="effect1_noise_166_581">
<feMergeNode in="shape" />
<feMergeNode in="color1" />
</feMerge>
</filter>
<filter id="filter1_ddiii_166_581" x="24" y="41" width="88" height="88" filterUnits="userSpaceOnUse" color-interpolation-filters="sRGB">
<feFlood flood-opacity="0" result="BackgroundImageFix"/>
<feColorMatrix in="SourceAlpha" type="matrix" values="0 0 0 0 0 0 0 0 0 0 0 0 0 0 0 0 0 0 127 0" result="hardAlpha"/>
<feOffset dy="16"/>
<feGaussianBlur stdDeviation="10.5"/>
<feComposite in2="hardAlpha" operator="out"/>
<feColorMatrix type="matrix" values="0 0 0 0 0 0 0 0 0 0 0 0 0 0 0 0 0 0 0.7 0"/>
<feBlend mode="normal" in2="BackgroundImageFix" result="effect1_dropShadow_166_581"/>
<feColorMatrix in="SourceAlpha" type="matrix" values="0 0 0 0 0 0 0 0 0 0 0 0 0 0 0 0 0 0 127 0" result="hardAlpha"/>
<feOffset dy="16"/>
<feGaussianBlur stdDeviation="10.5"/>
<feComposite in2="hardAlpha" operator="out"/>
<feColorMatrix type="matrix" values="0 0 0 0 0 0 0 0 0 0 0 0 0 0 0 0 0 0 0.7 0"/>
<feBlend mode="normal" in2="effect1_dropShadow_166_581" result="effect2_dropShadow_166_581"/>
<feBlend mode="normal" in="SourceGraphic" in2="effect2_dropShadow_166_581" result="shape"/>
<feColorMatrix in="SourceAlpha" type="matrix" values="0 0 0 0 0 0 0 0 0 0 0 0 0 0 0 0 0 0 127 0" result="hardAlpha"/>
<feMorphology radius="1" operator="erode" in="SourceAlpha" result="effect3_innerShadow_166_581"/>
<feOffset/>
<feComposite in2="hardAlpha" operator="arithmetic" k2="-1" k3="1"/>
<feColorMatrix type="matrix" values="0 0 0 0 1 0 0 0 0 1 0 0 0 0 1 0 0 0 0.05 0"/>
<feBlend mode="normal" in2="shape" result="effect3_innerShadow_166_581"/>
<feColorMatrix in="SourceAlpha" type="matrix" values="0 0 0 0 0 0 0 0 0 0 0 0 0 0 0 0 0 0 127 0" result="hardAlpha"/>
<feMorphology radius="1" operator="erode" in="SourceAlpha" result="effect4_innerShadow_166_581"/>
<feOffset/>
<feComposite in2="hardAlpha" operator="arithmetic" k2="-1" k3="1"/>
<feColorMatrix type="matrix" values="0 0 0 0 1 0 0 0 0 1 0 0 0 0 1 0 0 0 0.15 0"/>
<feBlend mode="plus-lighter" in2="effect3_innerShadow_166_581" result="effect4_innerShadow_166_581"/>
<feColorMatrix in="SourceAlpha" type="matrix" values="0 0 0 0 0 0 0 0 0 0 0 0 0 0 0 0 0 0 127 0" result="hardAlpha"/>
<feMorphology radius="1" operator="erode" in="SourceAlpha" result="effect5_innerShadow_166_581"/>
<feOffset/>
<feGaussianBlur stdDeviation="4.5"/>
<feComposite in2="hardAlpha" operator="arithmetic" k2="-1" k3="1"/>
<feColorMatrix type="matrix" values="0 0 0 0 0.152267 0 0 0 0 0.462869 0 0 0 0 0.999363 0 0 0 0.64 0"/>
<feBlend mode="plus-lighter" in2="effect4_innerShadow_166_581" result="effect5_innerShadow_166_581"/>
</filter>
<filter id="filter2_f_166_581" x="26.6809" y="-10.2002" width="171.045" height="168.489" filterUnits="userSpaceOnUse" color-interpolation-filters="sRGB">
<feFlood flood-opacity="0" result="BackgroundImageFix"/>
<feBlend mode="normal" in="SourceGraphic" in2="BackgroundImageFix" result="shape"/>
<feGaussianBlur stdDeviation="12" result="effect1_foregroundBlur_166_581"/>
</filter>
<filter id="filter3_f_166_581" x="26.6809" y="-10.2002" width="184.668" height="169.951" filterUnits="userSpaceOnUse" color-interpolation-filters="sRGB">
<feFlood flood-opacity="0" result="BackgroundImageFix"/>
<feBlend mode="normal" in="SourceGraphic" in2="BackgroundImageFix" result="shape"/>
<feGaussianBlur stdDeviation="12" result="effect1_foregroundBlur_166_581"/>
</filter>
<filter id="filter4_f_166_581" x="37.6809" y="0.799805" width="162.668" height="147.951" filterUnits="userSpaceOnUse" color-interpolation-filters="sRGB">
<feFlood flood-opacity="0" result="BackgroundImageFix"/>
<feBlend mode="normal" in="SourceGraphic" in2="BackgroundImageFix" result="shape"/>
<feGaussianBlur stdDeviation="5.5" result="effect1_foregroundBlur_166_581"/>
</filter>
<filter id="filter5_ddiii_166_581" x="29.6809" y="8.7998" width="178.668" height="163.951" filterUnits="userSpaceOnUse" color-interpolation-filters="sRGB">
<feFlood flood-opacity="0" result="BackgroundImageFix"/>
<feColorMatrix in="SourceAlpha" type="matrix" values="0 0 0 0 0 0 0 0 0 0 0 0 0 0 0 0 0 0 127 0" result="hardAlpha"/>
<feOffset dy="16"/>
<feGaussianBlur stdDeviation="10.5"/>
<feComposite in2="hardAlpha" operator="out"/>
<feColorMatrix type="matrix" values="0 0 0 0 0 0 0 0 0 0 0 0 0 0 0 0 0 0 0.7 0"/>
<feBlend mode="normal" in2="BackgroundImageFix" result="effect1_dropShadow_166_581"/>
<feColorMatrix in="SourceAlpha" type="matrix" values="0 0 0 0 0 0 0 0 0 0 0 0 0 0 0 0 0 0 127 0" result="hardAlpha"/>
<feOffset dy="16"/>
<feGaussianBlur stdDeviation="10.5"/>
<feComposite in2="hardAlpha" operator="out"/>
<feColorMatrix type="matrix" values="0 0 0 0 0 0 0 0 0 0 0 0 0 0 0 0 0 0 0.7 0"/>
<feBlend mode="normal" in2="effect1_dropShadow_166_581" result="effect2_dropShadow_166_581"/>
<feBlend mode="normal" in="SourceGraphic" in2="effect2_dropShadow_166_581" result="shape"/>
<feColorMatrix in="SourceAlpha" type="matrix" values="0 0 0 0 0 0 0 0 0 0 0 0 0 0 0 0 0 0 127 0" result="hardAlpha"/>
<feMorphology radius="1" operator="erode" in="SourceAlpha" result="effect3_innerShadow_166_581"/>
<feOffset/>
<feComposite in2="hardAlpha" operator="arithmetic" k2="-1" k3="1"/>
<feColorMatrix type="matrix" values="0 0 0 0 1 0 0 0 0 1 0 0 0 0 1 0 0 0 0.05 0"/>
<feBlend mode="normal" in2="shape" result="effect3_innerShadow_166_581"/>
<feColorMatrix in="SourceAlpha" type="matrix" values="0 0 0 0 0 0 0 0 0 0 0 0 0 0 0 0 0 0 127 0" result="hardAlpha"/>
<feMorphology radius="1" operator="erode" in="SourceAlpha" result="effect4_innerShadow_166_581"/>
<feOffset/>
<feComposite in2="hardAlpha" operator="arithmetic" k2="-1" k3="1"/>
<feColorMatrix type="matrix" values="0 0 0 0 1 0 0 0 0 1 0 0 0 0 1 0 0 0 0.15 0"/>
<feBlend mode="plus-lighter" in2="effect3_innerShadow_166_581" result="effect4_innerShadow_166_581"/>
<feColorMatrix in="SourceAlpha" type="matrix" values="0 0 0 0 0 0 0 0 0 0 0 0 0 0 0 0 0 0 127 0" result="hardAlpha"/>
<feMorphology radius="1" operator="erode" in="SourceAlpha" result="effect5_innerShadow_166_581"/>
<feOffset/>
<feGaussianBlur stdDeviation="4.5"/>
<feComposite in2="hardAlpha" operator="arithmetic" k2="-1" k3="1"/>
<feColorMatrix type="matrix" values="0 0 0 0 0.152267 0 0 0 0 0.462869 0 0 0 0 0.999363 0 0 0 0.64 0"/>
<feBlend mode="plus-lighter" in2="effect4_innerShadow_166_581" result="effect5_innerShadow_166_581"/>
</filter>
<radialGradient id="paint0_radial_166_581" cx="0" cy="0" r="1" gradientUnits="userSpaceOnUse" gradientTransform="translate(73 80.5) rotate(90) scale(58.5 73)">
<stop stop-color="white"/>
<stop offset="1" stop-color="white" stop-opacity="0"/>
</radialGradient>
<linearGradient id="paint1_linear_166_581" x1="52.4297" y1="97.8361" x2="87.3278" y2="53.4788" gradientUnits="userSpaceOnUse">
<stop stop-color="#D9D9D9" stop-opacity="0"/>
<stop offset="1" stop-color="#D9D9D9"/>
</linearGradient>
<radialGradient id="paint2_radial_166_581" cx="0" cy="0" r="1" gradientUnits="userSpaceOnUse" gradientTransform="translate(91 58.4817) rotate(180) scale(7.43293 14.6685)">
<stop stop-color="#003ACC"/>
<stop offset="1" stop-color="#0036CC" stop-opacity="0"/>
</radialGradient>
<radialGradient id="paint3_radial_166_581" cx="0" cy="0" r="1" gradientUnits="userSpaceOnUse" gradientTransform="translate(91 58.4817) rotate(180) scale(3.5061 12.4817)">
<stop stop-color="#003ACC"/>
<stop offset="1" stop-color="#003ACC" stop-opacity="0"/>
</radialGradient>
<radialGradient id="paint4_radial_166_581" cx="0" cy="0" r="1" gradientUnits="userSpaceOnUse" gradientTransform="translate(84 48) rotate(126.87) scale(10 35.6)">
<stop stop-color="#3672FF"/>
<stop offset="1" stop-color="#3672FF" stop-opacity="0"/>
</radialGradient>
<radialGradient id="paint5_radial_166_581" cx="0" cy="0" r="1" gradientUnits="userSpaceOnUse" gradientTransform="translate(48 46) rotate(28.3008) scale(14.7648 52.5628)">
<stop stop-color="#00CC44"/>
<stop offset="1" stop-color="#00AACC" stop-opacity="0"/>
</radialGradient>
<radialGradient id="paint6_radial_166_581" cx="0" cy="0" r="1" gradientUnits="userSpaceOnUse" gradientTransform="translate(93 71) rotate(-168.69) scale(5.09902 18.1525)">
<stop stop-color="#FFAD55"/>
<stop offset="1" stop-color="#FFAD55" stop-opacity="0"/>
</radialGradient>
<radialGradient id="paint7_radial_166_581" cx="0" cy="0" r="1" gradientUnits="userSpaceOnUse" gradientTransform="translate(91 58.4817) rotate(180) scale(3.5061 12.4817)">
<stop stop-color="#CC00A7"/>
<stop offset="1" stop-color="#AA00CC" stop-opacity="0"/>
</radialGradient>
<radialGradient id="paint8_radial_166_581" cx="0" cy="0" r="1" gradientUnits="userSpaceOnUse" gradientTransform="translate(91 58.4817) rotate(175.765) scale(7.01916 24.9882)">
<stop stop-color="#CC00A7"/>
<stop offset="1" stop-color="#AA00CC" stop-opacity="0"/>
</radialGradient>
<radialGradient id="paint9_radial_166_581" cx="0" cy="0" r="1" gradientUnits="userSpaceOnUse" gradientTransform="translate(68 40) rotate(90) scale(16 65.8459)">
<stop stop-color="#0092CC"/>
<stop offset="1" stop-color="#0092CC" stop-opacity="0"/>
</radialGradient>
<linearGradient id="paint10_linear_166_581" x1="84.5" y1="46" x2="82" y2="52" gradientUnits="userSpaceOnUse">
<stop stop-color="white"/>
<stop offset="1" stop-color="white" stop-opacity="0"/>
</linearGradient>
<linearGradient id="paint11_linear_166_581" x1="78.6928" y1="219.832" x2="63.1877" y2="135.662" gradientUnits="userSpaceOnUse">
<stop offset="0.213643" stop-color="#D9D9D9" stop-opacity="0"/>
<stop offset="0.629467" stop-color="#D9D9D9" stop-opacity="0.5"/>
<stop offset="1" stop-color="#D9D9D9" stop-opacity="0"/>
</linearGradient>
<radialGradient id="paint12_radial_166_581" cx="0" cy="0" r="1" gradientUnits="userSpaceOnUse" gradientTransform="translate(112.67 26.3671) rotate(114.319) scale(13.4116 35.8636)">
<stop stop-color="#003ACC"/>
<stop offset="1" stop-color="#0036CC" stop-opacity="0"/>
</radialGradient>
<radialGradient id="paint13_radial_166_581" cx="0" cy="0" r="1" gradientUnits="userSpaceOnUse" gradientTransform="translate(112.67 26.3671) rotate(114.319) scale(6.32622 30.517)">
<stop stop-color="#003ACC"/>
<stop offset="1" stop-color="#003ACC" stop-opacity="0"/>
</radialGradient>
<radialGradient id="paint14_radial_166_581" cx="0" cy="0" r="1" gradientTransform="matrix(13.3656 17.9203 -68.752 25.3217 84.1159 27.3232)" gradientUnits="userSpaceOnUse">
<stop stop-color="#00AACC"/>
<stop offset="1" stop-color="#00AACC" stop-opacity="0"/>
</radialGradient>
<radialGradient id="paint15_radial_166_581" cx="0" cy="0" r="1" gradientTransform="matrix(25.2556 -14.3272 84.5947 87.5718 52.9101 84.5024)" gradientUnits="userSpaceOnUse">
<stop stop-color="#00CC44"/>
<stop offset="1" stop-color="#00AACC" stop-opacity="0"/>
</radialGradient>
<radialGradient id="paint16_radial_166_581" cx="0" cy="0" r="1" gradientTransform="matrix(-5.94326 7.21438 -37.013 -23.7755 142.047 35.6827)" gradientUnits="userSpaceOnUse">
<stop stop-color="#FFAD55"/>
<stop offset="1" stop-color="#FFAD55" stop-opacity="0"/>
</radialGradient>
<radialGradient id="paint17_radial_166_581" cx="0" cy="0" r="1" gradientUnits="userSpaceOnUse" gradientTransform="translate(112.67 26.3671) rotate(114.319) scale(6.32622 30.517)">
<stop stop-color="#CC00A7"/>
<stop offset="1" stop-color="#AA00CC" stop-opacity="0"/>
</radialGradient>
<radialGradient id="paint18_radial_166_581" cx="0" cy="0" r="1" gradientTransform="matrix(-4.04661 12.0316 -56.8926 -22.057 112.67 26.3671)" gradientUnits="userSpaceOnUse">
<stop stop-color="#CC00A7"/>
<stop offset="1" stop-color="#AA00CC" stop-opacity="0"/>
</radialGradient>
<radialGradient id="paint19_radial_166_581" cx="0" cy="0" r="1" gradientUnits="userSpaceOnUse" gradientTransform="translate(54.4031 45.5763) rotate(24.3187) scale(39.119 118.809)">
<stop stop-color="#0092CC"/>
<stop offset="1" stop-color="#0092CC" stop-opacity="0"/>
</radialGradient>
<linearGradient id="paint20_linear_166_581" x1="80.0315" y1="24.4874" x2="88.8927" y2="36.5803" gradientUnits="userSpaceOnUse">
<stop stop-color="white"/>
<stop offset="1" stop-color="white" stop-opacity="0"/>
</linearGradient>
<clipPath id="clip0_166_581">
<rect width="173.726" height="177.317" fill="white" transform="translate(0 -38.3167)"/>
</clipPath>
</defs>
</svg>
